{"title":"Sanam Teri Kasam 2016  720p Hindi DvDRip x264 AAC-TaRa.mkv","uid":13989984,"size":1250899338,"categoryP":"video","categoryS":"movies_dvdr","magnet":"?xt=urn:btih:41ef4d5b4c39a4af74ff558b63d43bde7c2c9247&amp;dn=Sanam+Teri+Kasam+2016++720p+Hindi+DvDRip+x264+AAC-TaRa.mkv&amp;tr=udp%3A%2F%2Ftracker.leechers-paradise.org%3A6969&amp;tr=udp%3A%2F%2Fzer0day.ch%3A1337&amp;tr=udp%3A%2F%2Fopen.demonii.com%3A1337&amp;tr=udp%3A%2F%2Ftracker.coppersurfer.tk%3A6969&amp;tr=udp%3A%2F%2Fexodus.desync.com%3A6969","seeders":218,"leechers":39,"uploader":"MdTaRa","files":1,"time":1458701828,"description":"===================================================================================\r\nGeneral\r\nComplete name               : Sanam Teri Kasam 2016  720p Hindi DvDRip x264 AAC-TaRa.mkv\r\nFormat                      : Matroska\r\nFormat version              : Version 4 / Version 2\r\nFile size                   : 1.16 GiB\r\nDuration                    : 2h 34mn\r\nOverall bit rate mode       : Variable\r\nOverall bit rate            : 1 083 Kbps\r\nMovie name                  : Sanam Teri Kasam 2016  720p Hindi DvDRip x264 AAC-TaRa  [ Kickass Torrent ]\r\nEncoded date                : UTC 2016-03-23 01:36:12\r\nWriting application         : mkvmerge v8.3.0 ('Over the Horizon') 64bit\r\nWriting library             : libebml v1.3.1 + libmatroska v1.4.2\r\n===================================================================================\r\nVideo\r\nID                          : 1\r\nFormat                      : AVC\r\nFormat/Info                 : Advanced Video Codec\r\nFormat profile              :   \r\nFormat settings, CABAC      : Yes\r\nFormat settings, ReFrames   : 3 frames\r\nCodec ID                    : V_MPEG4/ISO/AVC\r\nDuration                    : 2h 34mn\r\nBit rate mode               : Variable\r\nBit rate                    : 1 000 Kbps\r\nMaximum bit rate            : 40.0 Mbps\r\nWidth                       : 1 280 pixels\r\nHeight                      : 544 pixels\r\nDisplay aspect ratio        : 2.35:1\r\nFrame rate mode             : Constant\r\nFrame rate                  : 23.976 (24000/1001) fps\r\nColor space                 : YUV\r\nChroma subsampling          : 4:2:0\r\nBit depth                   : 8 bits\r\nScan type                   : Progressive\r\nBits/(Pixel*Frame)          : 0.060\r\nStream size                 : 1.08 GiB (92%)\r\nTitle                       : = __ TaRa ~ DDR __ =\r\nLanguage                    : Hindi\r\nDefault                     : Yes\r\nForced                      : No\r\n===================================================================================\r\nAudio\r\nID                          : 2\r\nFormat                      : AAC\r\nFormat/Info                 : Advanced Audio Codec\r\nFormat profile              : HE-AAC / LC\r\nCodec ID                    : A_AAC\r\nDuration                    : 2h 34mn\r\nBit rate                    : 81.0 Kbps\r\nChannel(s)                  : 2 channels\r\nChannel positions           : Front: L R\r\nSampling rate               : 44.1 KHz / 22.05 KHz\r\nFrame rate                  : 21.533 fps (1024 spf)\r\nCompression mode            : Lossy\r\nDelay relative to video     : 33ms\r\nStream size                 : 89.2 MiB (7%)\r\nTitle                       : = __ TaRa ~ DDR __ =\r\nLanguage                    : Hindi\r\nDefault                     : Yes\r\nForced                      : No\r\n=================================================================================== \nhttp://i.imgur.com/M4ZItDt.png \nhttp://i.imgur.com/PjMj0ze.png \nhttp://i.imgur.com/AR7FKWB.png \nhttp://i.imgur.com/86W9Cb9.png \nhttp://i.imgur.com/FJSyA7G.png \nhttp://i.imgur.com/N2BiHlR.png \nhttp://i.imgur.com/kOiDFmC.png \nhttp://i.imgur.com/A9kDHKP.jpg","torrent":{"xt":"urn:btih:41ef4d5b4c39a4af74ff558b63d43bde7c2c9247","amp;dn":"Sanam+Teri+Kasam+2016++720p+Hindi+DvDRip+x264+AAC-TaRa.mkv","amp;tr":["udp%3A%2F%2Ftracker.leechers-paradise.org%3A6969","udp%3A%2F%2Fzer0day.ch%3A1337","udp%3A%2F%2Fopen.demonii.com%3A1337","udp%3A%2F%2Ftracker.coppersurfer.tk%3A6969","udp%3A%2F%2Fexodus.desync.com%3A6969"],"infoHash":"41ef4d5b4c39a4af74ff558b63d43bde7c2c9247","infoHashBuffer":{"type":"Buffer","data":[65,239,77,91,76,57,164,175,116,255,85,139,99,212,59,222,124,44,146,71]},"announce":[],"urlList":[]}}